<?xml version="1.0" encoding="UTF-8"?><svg id="a" xmlns="http://www.w3.org/2000/svg" viewBox="0 0 72 72"><defs><style>.b{fill:#9a0f0f;}.c{fill:#ba1b1d;}.d{fill:#eb2827;}</style></defs><path class="b" d="M35.9909273594,53.5540155751l-14.6684521291,10.6140614256-6.8730071584,4.9841544269,4.1893646115-13.0598024362,3.9420649789-12.3133214725-10.4122956836-7.5548524327L1.0892626287,28.1847751286l26.6899453701-.024392508,6.7928264577-21.0032677133,1.4244848707-4.35918397,4.9773196875,15.2298032188,3.2625563535,10.1415695309,24.4969449589-.0051173887c.7672282363-.0089242726,1.3891425852-.0677889763,2.1773970442.030404947l-21.4789309099,15.5879713654,8.1658969861,25.4195064521-13.429510005-9.7364633454-8.1772660831-5.9115901422ZM28.0062559061,28.2530874137l7.8606546714,10.2107380862.0081009137-34.4411342071c-.4341420673.9831854521-.6764681011,1.9794554974-1.0092158554,3.0268277878l-6.8595397297,21.2035683331ZM40.4313112266,32.8522878302l3.554884581-4.665223522-4.9856842474-15.3905595258-2.8403486351-8.5237455917-.0201720643,27.4099086555-.0019383734,6.6290635695c.2098186093-.0711831394.3043872765-.2110771311.4246286361-.3692849662l3.868630103-5.0901586193ZM31.8859181097,37.4153376853c.1314916197-.1035142308.1444834306.0236056478.186977514.039791001.3320005731.1264539938.6958937603.2107163564,1.0476722898.3009153263.7586990006.1945367968,1.4847107872.5216714087,2.3111239303.7757628109.0438824283-.4035752626-.4037745802-.5078966927-.4597530259-.7048164119-.0518379711-.1823544509-.185000476-.2515802096-.2752366433-.3503301703-.2080815222-.3480171994-.6585565143-.8655744875-.8830695634-1.1589433629l-.2678176518-.3499545513c-.0866720658-.1132534906-.1772601403-.2984970041-.3268744417-.4134782174-.0197547404-.1543411871-.2575648495-.2892944568-.3345285667-.4027023222l-.2961541435-.4363901644c-.1439242942-.2120758659-.5081299574-.7345670851-.6865929989-.7444772582.085858074-.1363444647.0082706353-.2104967198-.0349076647-.2708274846-.047876885-.0668958502-.2291837719-.0396777631-.2100179722-.0963466766.0802751742-.237355444-.2423311051-.2615941825-.2392326546-.368311445.0067803519-.2335298247-.2725274756-.349280604-.3406377999-.4423577971l-.263208176-.3596911112c-.0790254609-.1079934381-.2143063694-.2730922135-.269539209-.3502285647l-.2612743354-.3648870673c-.2344878073-.327477891-.3455542681-.4677243757-.5384627488-.7087995523l-.3504000699-.4378903324c-.0107272504-.12815653-.2003280623-.2177402995-.230759275-.2981456672.0249223453.0658498351-.4660506416-.7409312207-.612056364-.7065297558.0289156455-.1038763468.0062062338-.1492942261-.0171304497-.1959969865-.0348754152-.0697947574-.2175088826-.0962686803-.2212482448-.1534905009-.0137616548-.2105885746-.1214199606-.3372911048-.3450539839-.4148299943-.0468369245-.1148734142-.0095155286-.2606664897-.0867127958-.3135977687-.2635660701-.180717397-1.6055541951-.1014582757-1.9902110407-.1072915658l-1.6861244751-.0255699417-5.4525817763.0258383074-1.6312891143-.0252993389-14.4140620057.1187810249c1.6806311099.7182460727,12.289449966,3.6589978692,12.7349715469,3.8933159709l.1898685857.0998596891c.1096723482.0576811933.1818684558-.0111863219.2552785364.0127792693l2.9883551816.9755839807c.1351986966-.0887915297.2327251785-.1199641563.2149985307.0896458933.1452336767-.1141316197.7597214349.2565459977,1.2323364202.3162075496.104980952.0132524924.1523594597.0156536591.2241341316.0954120243.0453574053.0504026337.1530485319-.0740933814.1889422451-.0390071419.0509642002.0498176972.0260248552.1163181623.0595658055.1378202968.0225850725.0144786377.1005923949.0031085366.1802131691-.0501257526.1243129132.2281693983.4600796669.2075272334.6432027218.2481211305.3655567376.0810349772,1.2685871595.5084709766,1.765018407.4653588787.0606071567.0871644665.0530311738.1593727248.1258553584.1380971514.0663448055-.0193826239.1054308676-.0628716798.1432489472-.0659211516-.2937384412.1177883698,1.6385205168.4860609602,1.2543452866.5164785667.0662563592-.0052459391.1519729231-.1359026114.1741481481-.0283166237.0451202876.2189069429.2021608478-.0024480549.2662457509.0988550839.1428914101.2258776664.4230314955.0457186329.6108187337.2127337588.1840216233.163666045.4721121615.0359947985.6226136845.1443814697.2858077178.2058301239.5988312426.2453657593.8972995682.2315885849.0034263293.1513116072.0591628459.1364155512.0906799478.1344030277.044573171-.0028462184.0863197129-.0610577377.1704637134-.0811010846-.0090180877.1590292999.0278823788.1816927498.0920508941.1718991046.075798075-.0115685932.0924631543-.045650401.1599425157-.0856122278.016592975.1557955684.0456503928.1721810765.1042245491.1681998414.0794777642-.0054020354.121242446-.0777537387.1525088402-.0682841435.0418429009.1079297569.0229796206.1602583758.1067365371.1557871772.0321751204-.0017176056.083446877.0418391609.2250821504-.0559049372.0548073122-.0378231437.0318162986.1893083635.127521853.1495429242.237864435-.0988321295.5744199432.2977598963.9660678565.2461348249.131688692-.0952357692.0892690015.1051501888.1469145199.0912436699l.1920091897-.0463206767c.0460758048-.0111154183.0274150391.1198340988.0605731894.1380374478.0222149892.0121957105.0457325893.0416527258.1863472479-.047421887.0483401433-.0306218398.0409898005.1634241529.1311637724.1413560381.0692516938-.0169478431.1532480266-.1268342041.1768348507-.0085785868.0456512777.228878631.2680597658.0472577456.3460651791.0887348176.4595693696.2443624236,1.062911011.2839497729.972515891.3551115803ZM59.5341493854,28.3650341663c-.5843077267.0013218359-1.0419214647.0296859339-1.5657257399.0065144672-1.1805796608-.0522251604-2.3394216365.0041049265-3.5290105149-.0006037162l-2.7385913214-.0108399197c-.8649458846-.0034236375-1.6980249894.0298455039-2.5675852382.0047825953-1.6510316879-.0475868767-3.4019776409-.0570549251-5.013871812.0743611882l-7.7311917549,10.172879148,9.8292575619-3.0128658707,9.439245738-2.8667249679,13.9866111381-4.3284532296-1.3356473335-.05889731-8.7734907232.0198476155ZM27.2236743982,41.9118722344l8.350060045-3.0686383777-15.4583033503-4.7232644202L2.1786853907,28.660657385l11.2371853035,8.172769979,9.3282135387,6.7550949335,4.4795901653-1.6766500632ZM50.9482571829,42.3112732461l6.3351567743-4.5995326733,3.241634125-2.3127784014.8096390444-.6475284472,3.6452596065-2.590276909c.0570536858-.0405416516.0511632219-.2078124871.1064019393-.1962761688l.1218073294.0254388261c.4189858824-.3803009195,1.3129167361-.9197733776,1.5666022568-1.1834585308.2204084982-.2290964358.6713074812-.3288878644.8733524689-.5960050775.2071101337-.2738136805,1.8534888273-1.125687997,1.721283346-1.338457442-.0199083344-.0320401637-.094750015-.0943418116-.187307619-.0657530882l-12.0759495998,3.7299580803-17.1457024137,5.2311144834c-1.1682925608.3564433809-2.1964954816.6640359469-3.3742817122,1.0894078356.4369388619.2547928142.8324203591.2829832444,1.2547253207.4377117817l3.172074565,1.1622180699c.5755811725.2108874888,1.132469996.4492747723,1.7383873791.6573897387l1.6394151707.5630913434,1.8478614176.6760184174c.8852794992.3238691172,1.3808684494.5199928784,2.3745377831.8786426254l.6888756921.2486391442c.4074212951-.2368778145,1.1546436567-.812657803,1.6462271259-1.1695636079ZM15.1486774758,67.9313798618l7.1035568844-9.9221447376,13.3968706239-18.8726414444-3.5095024987,1.2711245418-9.3126069258,3.3980087045-6.6276709309,20.6632556508c-.3857505684,1.2026642082-.7723999622,2.2490984809-1.050647153,3.4623972849ZM56.7984834013,67.8260906121c.046395457-.3875776546-.1283372895-.5332403888-.1713107238-.894259614l-7.4540565246-23.1476904753-11.9496554736-4.3688640169c-.2805981653-.1025883324-.4690033775-.1915324165-.7489892595-.1634998983l6.8539819452,9.6506412598,8.4189706315,11.9238367131,4.1422142625,5.831958378c.3023903552.4257452304.5312087207.8408816696.9088451424,1.1678776537ZM56.591506822,68.0400423095l-12.8390697638-18.1191887602-7.6252744661-10.6725786819-.0105858733,14.0954605805,19.0846231779,13.8197316147c.473100953.3135071306.8195247063.8001281807,1.3903069254.8765752468ZM15.6151251451,67.9529268704l5.2298708165-3.7534731218,15.0325805198-10.872987585-.0272092657-13.9952873897-12.4524949521,17.5196697352-5.9103329814,8.3147711862c-.6662458612.9372876126-1.3677555089,1.7903922632-1.872414137,2.787307175Z"/><path class="d" d="M56.591506822,68.0400423095c-.570782219-.0764470661-.9172059723-.5630681161-1.3903069254-.8765752468l-19.0846231779-13.8197316147.0105858733-14.0954605805,7.6252744661,10.6725786819,12.8390697638,18.1191887602Z"/><path class="c" d="M56.7984834013,67.8260906121c-.3776364216-.3269959841-.6064547872-.7421324233-.9088451424-1.1678776537l-4.1422142625-5.831958378-8.4189706315-11.9238367131-6.8539819452-9.6506412598c.279985882-.0280325182.4683910943.060911566.7489892595.1634998983l11.9496554736,4.3688640169,7.4540565246,23.1476904753c.0429734343.3610192252.2177061808.5066819594.1713107238.894259614Z"/><path class="c" d="M15.6151251451,67.9529268704c.5046586282-.9969149118,1.2061682758-1.8500195624,1.872414137-2.787307175l5.9103329814-8.3147711862,12.4524949521-17.5196697352.0272092657,13.9952873897-15.0325805198,10.872987585-5.2298708165,3.7534731218Z"/><path class="d" d="M15.1486774758,67.9313798618c.2782471908-1.213298804.6648965845-2.2597330766,1.050647153-3.4623972849l6.6276709309-20.6632556508,9.3126069258-3.3980087045,3.5095024987-1.2711245418-13.3968706239,18.8726414444-7.1035568844,9.9221447376Z"/><path class="d" d="M28.0062559061,28.2530874137l6.8595397297-21.2035683331c.3327477543-1.0473722904.5750737881-2.0436423358,1.0092158554-3.0268277878l-.0081009137,34.4411342071-7.8606546714-10.2107380862Z"/><path class="c" d="M40.4313112266,32.8522878302l-3.868630103,5.0901586193c-.1202413596.158207835-.2148100268.2981018268-.4246286361.3692849662l.0019383734-6.6290635695.0201720643-27.4099086555,2.8403486351,8.5237455917,4.9856842474,15.3905595258-3.554884581,4.665223522Z"/><path class="b" d="M50.9482571829,42.3112732461c-.4915834692.356905805-1.2388058308.9326857935-1.6462271259,1.1695636079l-.6888756921-.2486391442c-.9936693337-.3586497471-1.4892582838-.5547735083-2.3745377831-.8786426254l-1.8478614176-.6760184174-1.6394151707-.5630913434c-.605917383-.2081149664-1.1628062065-.4465022499-1.7383873791-.6573897387l-3.172074565-1.1622180699c-.4223049616-.1547285372-.8177864588-.1829189674-1.2547253207-.4377117817,1.1777862305-.4253718887,2.2059891514-.7329644547,3.3742817122-1.0894078356l17.1457024137-5.2311144834,12.0759495998-3.7299580803c.092557604-.0285887234.1673992846.0337129245.187307619.0657530882.1322054812.212769445-1.5141732124,1.0646437615-1.721283346,1.338457442-.2020449877.2671172131-.6529439707.3669086417-.8733524689.5960050775-.2536855207.2636851531-1.1476163744.8031576112-1.5666022568,1.1834585308l-.1218073294-.0254388261c-.0552387174-.0115363183-.0493482535.1557345173-.1064019393.1962761688l-3.6452596065,2.590276909-.8096390444.6475284472-3.241634125,2.3127784014-6.3351567743,4.5995326733Z"/><path class="d" d="M59.5341493854,28.3650341663l8.7734907232-.0198476155,1.3356473335.05889731-13.9866111381,4.3284532296-9.439245738,2.8667249679-9.8292575619,3.0128658707,7.7311917549-10.172879148c1.6118941712-.1314161133,3.3628401241-.1219480648,5.013871812-.0743611882.8695602488.0250629086,1.7026393536-.0082062328,2.5675852382-.0047825953l2.7385913214.0108399197c1.1895888784.0047086427,2.348430854-.0516214442,3.5290105149.0006037162.5238042752.0231714667.9814180132-.0051926313,1.5657257399-.0065144672Z"/><polygon class="d" points="27.2236743982 41.9118722344 22.7440842329 43.5885222976 13.4158706942 36.8334273641 2.1786853907 28.660657385 20.1154310929 34.1199694365 35.5737344432 38.8432338568 27.2236743982 41.9118722344"/><path class="b" d="M31.8859181097,37.4153376853c.0903951199-.0711618073-.5129465214-.1107491567-.972515891-.3551115803-.0780054132-.041477072-.3004139014.1401438134-.3460651791-.0887348176-.0235868242-.1182556173-.1075831569-.0083692563-.1768348507.0085785868-.0901739718.0220681148-.082823629-.1719778779-.1311637724-.1413560381-.1406146587.0890746128-.1641322587.0596175974-.1863472479.047421887-.0331581504-.018203349-.0144973846-.1491528661-.0605731894-.1380374478l-.1920091897.0463206767c-.0576455184.0139065189-.015225828-.1864794391-.1469145199-.0912436699-.3916479133.0516250713-.7282034216-.3449669545-.9660678565-.2461348249-.0957055544.0397654393-.0727145408-.1873660679-.127521853-.1495429242-.1416352734.0977440981-.19290703.0541873316-.2250821504.0559049372-.0837569165.0044711985-.0648936363-.0478574203-.1067365371-.1557871772-.0312663941-.0094695952-.073031076.0628821082-.1525088402.0682841435-.0585741563.0039812351-.087631574-.012404273-.1042245491-.1681998414-.0674793613.0399618268-.0841444407.0740436346-.1599425157.0856122278-.0641685153.0097936452-.1010689818-.0128698047-.0920508941-.1718991046-.0841440006.0200433469-.1258905425.0782548663-.1704637134.0811010846-.0315171019.0020125235-.0872536185.0169085795-.0906799478-.1344030277-.2984683256.0137771743-.6114918504-.025758461-.8972995682-.2315885849-.150501523-.1083866712-.4385920613.0192845753-.6226136845-.1443814697-.1877872382-.1670151259-.4679273236.0131439076-.6108187337-.2127337588-.0640849031-.1013031388-.2211254633.120051859-.2662457509-.0988550839-.022175225-.1075859877-.1078917889.0230706846-.1741481481.0283166237.3841752302-.0304176065-1.5480837278-.3986901969-1.2543452866-.5164785667-.0378180795.0030494718-.0769041417.0465385278-.1432489472.0659211516-.0728241846.0212755734-.0652482017-.050932685-.1258553584-.1380971514-.4964312475.0431120978-1.3994616694-.3843239016-1.765018407-.4653588787-.1831230548-.040593897-.5188898086-.0199517322-.6432027218-.2481211305-.0796207743.0532342892-.1576280966.0646043903-.1802131691.0501257526-.0335409503-.0215021345-.0086016053-.0880025996-.0595658055-.1378202968-.0358937132-.0350862395-.1435848398.0894097756-.1889422451.0390071419-.0717746719-.0797583652-.1191531797-.0821595318-.2241341316-.0954120243-.4726149853-.0596615518-1.0871027435-.4303391693-1.2323364202-.3162075496.0177266477-.2096100496-.0797998341-.178437423-.2149985307-.0896458933l-2.9883551816-.9755839807c-.0734100806-.0239655912-.1456061882.044901924-.2552785364-.0127792693l-.1898685857-.0998596891c-.4455215809-.2343181016-11.054340437-3.1750698982-12.7349715469-3.8933159709l14.4140620057-.1187810249,1.6312891143.0252993389,5.4525817763-.0258383074,1.6861244751.0255699417c.3846568456.00583329,1.7266449706-.0734258312,1.9902110407.1072915658.0771972672.052931279.0398758713.1987243545.0867127958.3135977687.2236340233.0775388895.3312923292.2042414197.3450539839.4148299943.0037393621.0572218205.1863728296.0836957435.2212482448.1534905009.0233366834.0467027604.0460460951.0921206397.0171304497.1959969865.1460057224-.034401465.6369787093.7723795909.612056364.7065297558.0304312127.0804053677.2200320245.1699891372.230759275.2981456672l.3504000699.4378903324c.1929084807.2410751766.3039749415.3813216613.5384627488.7087995523l.2612743354.3648870673c.0552328397.0771363512.1905137481.2422351266.269539209.3502285647l.263208176.3596911112c.0681103243.0930771931.3474181518.2088279724.3406377999.4423577971-.0030984505.1067172626.3195078288.1309560011.2392326546.368311445-.0191657997.0566689135.1621410872.0294508264.2100179722.0963466766.0431783.0603307649.1207657387.1344830199.0349076647.2708274846.1784630416.0099101731.5426687047.5324013923.6865929989.7444772582l.2961541435.4363901644c.0769637173.1134078654.3147738263.2483611351.3345285667.4027023222.1496143014.1149812134.2402023759.3002247269.3268744417.4134782174l.2678176518.3499545513c.2245130491.2933688754.6749880412.8109261635.8830695634,1.1589433629.0902361673.0987499606.2233986721.1679757194.2752366433.3503301703.0559784456.1969197192.5036354541.3012411493.4597530259.7048164119-.8264131431-.2540914022-1.5524249297-.5812260141-2.3111239303-.7757628109-.3517785296-.0901989699-.7156717167-.1744613326-1.0476722898-.3009153263-.0424940833-.0161853532-.0554858943-.1433052318-.186977514-.039791001Z"/></svg>