<svg xmlns="http://www.w3.org/2000/svg" xmlns:xlink="http://www.w3.org/1999/xlink" width="300" height="122" viewBox="0 0 300 122">
  <defs>
    <clipPath id="clip-path">
      <rect id="Rectangle_70520" data-name="Rectangle 70520" width="300" height="122" fill="#0b1d99"/>
    </clipPath>
  </defs>
  <g id="Group_83310" data-name="Group 83310" transform="translate(6324.899 20968.686)">
    <g id="Group_83309" data-name="Group 83309" transform="translate(-6324.899 -20968.686)">
      <g id="Group_83307" data-name="Group 83307" transform="translate(0 0)" clip-path="url(#clip-path)">
        <path id="Path_78890" data-name="Path 78890" d="M233.6,104.431,223.31,91.376a57.4,57.4,0,0,0,4.355-6.72,56.711,56.711,0,0,0,6.988-30.935C232.81,23.318,206.772-.63,176.193.012a57.318,57.318,0,0,0-56.1,61.159c2.183,31.056,30.609,54.853,61.816,52.989l1.73-.1a10.643,10.643,0,1,0-1.279-21.248l-2.111.126C160.86,94.095,143.5,80.1,141.514,60.86A36.029,36.029,0,1,1,211.827,67.6a35.6,35.6,0,0,1-2.488,6.05l-7.451-9.454A10.967,10.967,0,1,0,184.381,77.4l31.711,40.242A10.968,10.968,0,1,0,233.6,104.431" transform="translate(40.084 -0.001)" fill="#0b1d99"/>
        <path id="Path_78891" data-name="Path 78891" d="M80.656,47.681v28.3H73.392V48c0-10.213-5.342-16.064-14.208-16.064-6.091,0-11.858,2.872-15.811,9.469a29.071,29.071,0,0,1,.64,6.276v28.3H36.749V48c0-10.213-5.447-16.064-14.208-16.064-5.876,0-11.324,2.979-15.276,8.936V75.979H0V26.831H7.265v5.639c4.059-4.574,9.08-7.234,16.558-7.234,7.265,0,13.354,3.3,16.879,9.149,4.807-5.851,11-9.149,19.764-9.149,11.857,0,20.19,8.617,20.19,22.446" transform="translate(0 8.291)" fill="#0b1d99"/>
        <path id="Path_78892" data-name="Path 78892" d="M87.935,101.967h-7.8l10.9-23.83-25.212-51.7h7.9l21.153,43.3,19.763-43.3h7.8Z" transform="translate(21.996 8.686)" fill="#0b1d99"/>
        <path id="Path_78893" data-name="Path 78893" d="M230.547,68.969a11.361,11.361,0,1,1-11.355-11.025,11.087,11.087,0,0,1,11.355,11.025m-2.193,0A9.163,9.163,0,1,0,219.192,78a9.125,9.125,0,0,0,9.162-9.028m-7.3,1.379,3.054,3.705h-2.1l-2.913-3.563H217v3.563h-1.622v-10.6h4.437c2.243,0,3.961,1.424,3.961,3.563a3.365,3.365,0,0,1-2.72,3.327M217,68.969h2.767a2.037,2.037,0,0,0,2.291-2,2.063,2.063,0,0,0-2.291-2H217Z" transform="translate(69.453 19.039)" fill="#0b1d99"/>
      </g>
    </g>
  </g>
</svg>
